{
    "asset" : {
        "generator" : "Khronos glTF Blender I/O v1.1.46",
        "version" : "2.0"
    },
    "scene" : 0,
    "scenes" : [
        {
            "name" : "Scene",
            "nodes" : [
                0,
                1,
                2
            ]
        }
    ],
    "nodes" : [
        {
            "name" : "Light",
            "rotation" : [
                0.16907575726509094,
                0.7558803558349609,
                -0.27217137813568115,
                0.570947527885437
            ],
            "translation" : [
                4.076245307922363,
                5.903861999511719,
                -1.0054539442062378
            ]
        },
        {
            "name" : "Camera",
            "rotation" : [
                0.483536034822464,
                0.33687159419059753,
                -0.20870360732078552,
                0.7804827094078064
            ],
            "translation" : [
                7.358891487121582,
                4.958309173583984,
                6.925790786743164
            ]
        },
        {
            "mesh" : 0,
            "name" : "Text",
            "rotation" : [
                0.702399492263794,
                0.7023994326591492,
                -0.08145573735237122,
                0.08145525306463242
            ],
            "scale" : [
                1,
                2.5,
                2
            ]
        }
    ],
    "materials" : [
        {
            "doubleSided" : true,
            "emissiveFactor" : [
                0,
                0,
                0
            ],
            "name" : "Material.001",
            "pbrMetallicRoughness" : {
                "baseColorFactor" : [
                    0.300543874502182,
                    0.30054375529289246,
                    0.3005438446998596,
                    1
                ],
                "metallicFactor" : 1,
                "roughnessFactor" : 0.5
            }
        },
        {
            "doubleSided" : true,
            "emissiveFactor" : [
                0,
                0,
                0
            ],
            "name" : "Material.002",
            "pbrMetallicRoughness" : {
                "baseColorFactor" : [
                    0.5457249283790588,
                    0.0009104920900426805,
                    0,
                    1
                ],
                "metallicFactor" : 1,
                "roughnessFactor" : 0.5
            }
        },
        {
            "doubleSided" : true,
            "emissiveFactor" : [
                0,
                0,
                0
            ],
            "name" : "Material.003",
            "pbrMetallicRoughness" : {
                "baseColorFactor" : [
                    0,
                    0,
                    0,
                    1
                ],
                "metallicFactor" : 1,
                "roughnessFactor" : 0.5
            }
        }
    ],
    "meshes" : [
        {
            "name" : "Text",
            "primitives" : [
                {
                    "attributes" : {
                        "POSITION" : 0,
                        "NORMAL" : 1,
                        "TEXCOORD_0" : 2
                    },
                    "indices" : 3,
                    "material" : 0
                },
                {
                    "attributes" : {
                        "POSITION" : 4,
                        "NORMAL" : 5,
                        "TEXCOORD_0" : 6
                    },
                    "indices" : 7,
                    "material" : 1
                },
                {
                    "attributes" : {
                        "POSITION" : 8,
                        "NORMAL" : 9,
                        "TEXCOORD_0" : 10
                    },
                    "indices" : 11,
                    "material" : 2
                }
            ]
        }
    ],
    "accessors" : [
        {
            "bufferView" : 0,
            "componentType" : 5126,
            "count" : 6642,
            "max" : [
                1.7927734851837158,
                0.9086356163024902,
                0.3291540741920471
            ],
            "min" : [
                -0.07699304819107056,
                -0.9086356163024902,
                -1.7133041620254517
            ],
            "type" : "VEC3"
        },
        {
            "bufferView" : 1,
            "componentType" : 5126,
            "count" : 6642,
            "type" : "VEC3"
        },
        {
            "bufferView" : 2,
            "componentType" : 5126,
            "count" : 6642,
            "type" : "VEC2"
        },
        {
            "bufferView" : 3,
            "componentType" : 5123,
            "count" : 25923,
            "type" : "SCALAR"
        },
        {
            "bufferView" : 4,
            "componentType" : 5126,
            "count" : 1192,
            "max" : [
                1.767899990081787,
                0.89523845911026,
                0.3291540741920471
            ],
            "min" : [
                0.10850078612565994,
                -0.89523845911026,
                -1.3848645687103271
            ],
            "type" : "VEC3"
        },
        {
            "bufferView" : 5,
            "componentType" : 5126,
            "count" : 1192,
            "type" : "VEC3"
        },
        {
            "bufferView" : 6,
            "componentType" : 5126,
            "count" : 1192,
            "type" : "VEC2"
        },
        {
            "bufferView" : 7,
            "componentType" : 5123,
            "count" : 3504,
            "type" : "SCALAR"
        },
        {
            "bufferView" : 8,
            "componentType" : 5126,
            "count" : 144,
            "max" : [
                1.2591885328292847,
                0.8678672909736633,
                -1.0838767217080658e-08
            ],
            "min" : [
                0.38231325149536133,
                -0.8678672909736633,
                -1.3126825094223022
            ],
            "type" : "VEC3"
        },
        {
            "bufferView" : 9,
            "componentType" : 5126,
            "count" : 144,
            "type" : "VEC3"
        },
        {
            "bufferView" : 10,
            "componentType" : 5126,
            "count" : 144,
            "type" : "VEC2"
        },
        {
            "bufferView" : 11,
            "componentType" : 5123,
            "count" : 402,
            "type" : "SCALAR"
        }
    ],
    "bufferViews" : [
        {
            "buffer" : 0,
            "byteLength" : 79704,
            "byteOffset" : 0
        },
        {
            "buffer" : 0,
            "byteLength" : 79704,
            "byteOffset" : 79704
        },
        {
            "buffer" : 0,
            "byteLength" : 53136,
            "byteOffset" : 159408
        },
        {
            "buffer" : 0,
            "byteLength" : 51846,
            "byteOffset" : 212544
        },
        {
            "buffer" : 0,
            "byteLength" : 14304,
            "byteOffset" : 264392
        },
        {
            "buffer" : 0,
            "byteLength" : 14304,
            "byteOffset" : 278696
        },
        {
            "buffer" : 0,
            "byteLength" : 9536,
            "byteOffset" : 293000
        },
        {
            "buffer" : 0,
            "byteLength" : 7008,
            "byteOffset" : 302536
        },
        {
            "buffer" : 0,
            "byteLength" : 1728,
            "byteOffset" : 309544
        },
        {
            "buffer" : 0,
            "byteLength" : 1728,
            "byteOffset" : 311272
        },
        {
            "buffer" : 0,
            "byteLength" : 1152,
            "byteOffset" : 313000
        },
        {
            "buffer" : 0,
            "byteLength" : 804,
            "byteOffset" : 314152
        }
    ],
    "buffers" : [
        {
            "byteLength" : 314956,
            "uri" : "data:application/octet-stream;base64,"
        }
    ]
}
