{
    "asset" : {
        "generator" : "Khronos glTF Blender I/O v1.1.46",
        "version" : "2.0"
    },
    "scene" : 0,
    "scenes" : [
        {
            "name" : "Scene",
            "nodes" : [
                0
            ]
        }
    ],
    "nodes" : [
        {
            "mesh" : 0,
            "name" : "Text",
            "rotation" : [
                -0.5542689561843872,
                -0.4390735328197479,
                0.5542692542076111,
                0.43907392024993896
            ],
            "scale" : [
                1,
                2.0000009536743164,
                2.500000238418579
            ]
        }
    ],
    "materials" : [
        {
            "doubleSided" : true,
            "emissiveFactor" : [
                0,
                0,
                0
            ],
            "name" : "Material.001",
            "pbrMetallicRoughness" : {
                "baseColorFactor" : [
                    0.300543874502182,
                    0.30054375529289246,
                    0.3005438446998596,
                    1
                ],
                "metallicFactor" : 1,
                "roughnessFactor" : 0.5
            }
        },
        {
            "doubleSided" : true,
            "emissiveFactor" : [
                0,
                0,
                0
            ],
            "name" : "Material.002",
            "pbrMetallicRoughness" : {
                "baseColorFactor" : [
                    0.5457249283790588,
                    0.0009104920900426805,
                    0,
                    1
                ],
                "metallicFactor" : 1,
                "roughnessFactor" : 0.5
            }
        },
        {
            "doubleSided" : true,
            "emissiveFactor" : [
                0,
                0,
                0
            ],
            "name" : "Material.003",
            "pbrMetallicRoughness" : {
                "baseColorFactor" : [
                    0,
                    0,
                    0,
                    1
                ],
                "metallicFactor" : 1,
                "roughnessFactor" : 0.5
            }
        }
    ],
    "meshes" : [
        {
            "name" : "Text",
            "primitives" : [
                {
                    "attributes" : {
                        "POSITION" : 0,
                        "NORMAL" : 1,
                        "TEXCOORD_0" : 2
                    },
                    "indices" : 3,
                    "material" : 0
                },
                {
                    "attributes" : {
                        "POSITION" : 4,
                        "NORMAL" : 5,
                        "TEXCOORD_0" : 6
                    },
                    "indices" : 7,
                    "material" : 1
                },
                {
                    "attributes" : {
                        "POSITION" : 8,
                        "NORMAL" : 9,
                        "TEXCOORD_0" : 10
                    },
                    "indices" : 11,
                    "material" : 2
                }
            ]
        }
    ],
    "accessors" : [
        {
            "bufferView" : 0,
            "componentType" : 5126,
            "count" : 6658,
            "max" : [
                1.7927734851837158,
                0.3291540741920471,
                0.9086356163024902
            ],
            "min" : [
                -0.07699304819107056,
                -1.7133041620254517,
                -0.9086356163024902
            ],
            "type" : "VEC3"
        },
        {
            "bufferView" : 1,
            "componentType" : 5126,
            "count" : 6658,
            "type" : "VEC3"
        },
        {
            "bufferView" : 2,
            "componentType" : 5126,
            "count" : 6658,
            "type" : "VEC2"
        },
        {
            "bufferView" : 3,
            "componentType" : 5123,
            "count" : 25920,
            "type" : "SCALAR"
        },
        {
            "bufferView" : 4,
            "componentType" : 5126,
            "count" : 1192,
            "max" : [
                1.767899990081787,
                0.3291540741920471,
                0.89523845911026
            ],
            "min" : [
                0.10850078612565994,
                -1.3848645687103271,
                -0.89523845911026
            ],
            "type" : "VEC3"
        },
        {
            "bufferView" : 5,
            "componentType" : 5126,
            "count" : 1192,
            "type" : "VEC3"
        },
        {
            "bufferView" : 6,
            "componentType" : 5126,
            "count" : 1192,
            "type" : "VEC2"
        },
        {
            "bufferView" : 7,
            "componentType" : 5123,
            "count" : 3504,
            "type" : "SCALAR"
        },
        {
            "bufferView" : 8,
            "componentType" : 5126,
            "count" : 144,
            "max" : [
                1.2591885328292847,
                -1.0838767217080658e-08,
                0.8678672909736633
            ],
            "min" : [
                0.38231325149536133,
                -1.3126825094223022,
                -0.8678672909736633
            ],
            "type" : "VEC3"
        },
        {
            "bufferView" : 9,
            "componentType" : 5126,
            "count" : 144,
            "type" : "VEC3"
        },
        {
            "bufferView" : 10,
            "componentType" : 5126,
            "count" : 144,
            "type" : "VEC2"
        },
        {
            "bufferView" : 11,
            "componentType" : 5123,
            "count" : 402,
            "type" : "SCALAR"
        }
    ],
    "bufferViews" : [
        {
            "buffer" : 0,
            "byteLength" : 79896,
            "byteOffset" : 0
        },
        {
            "buffer" : 0,
            "byteLength" : 79896,
            "byteOffset" : 79896
        },
        {
            "buffer" : 0,
            "byteLength" : 53264,
            "byteOffset" : 159792
        },
        {
            "buffer" : 0,
            "byteLength" : 51840,
            "byteOffset" : 213056
        },
        {
            "buffer" : 0,
            "byteLength" : 14304,
            "byteOffset" : 264896
        },
        {
            "buffer" : 0,
            "byteLength" : 14304,
            "byteOffset" : 279200
        },
        {
            "buffer" : 0,
            "byteLength" : 9536,
            "byteOffset" : 293504
        },
        {
            "buffer" : 0,
            "byteLength" : 7008,
            "byteOffset" : 303040
        },
        {
            "buffer" : 0,
            "byteLength" : 1728,
            "byteOffset" : 310048
        },
        {
            "buffer" : 0,
            "byteLength" : 1728,
            "byteOffset" : 311776
        },
        {
            "buffer" : 0,
            "byteLength" : 1152,
            "byteOffset" : 313504
        },
        {
            "buffer" : 0,
            "byteLength" : 804,
            "byteOffset" : 314656
        }
    ],
    "buffers" : [
        {
            "byteLength" : 315460,
            "uri" : "data:application/octet-stream;base64,"
        }
    ]
}
